# xmcd
#
# Track frame offsets: 
#        150
#        22120
#        36433
#        50339
#        69666
#        90806
#        105351
#        120677
#        140086
#        158132
#
# Disc length: 2411 seconds
#
# Revision: 0
# Processed by: cddbd v1.5.2PL0 Copyright (c) Steve Scherf et al.
# Submitted via: ExactAudioCopy v0.95b4
#
DISCID=8109690a
DTITLE=Stephen Simmons - Drink Ring Jesus
DYEAR=2006
DGENRE=Country
TTITLE0=Drink Ring Jesus
TTITLE1=Time To Pay
TTITLE2=Carpenter Skills
TTITLE3=You Give To Us
TTITLE4=Devil's Work Is Never Done
TTITLE5=Cryin Elvis
TTITLE6=Dante's Blues No.7
TTITLE7=His Time
TTITLE8=Next Stop Redemption
TTITLE9=Long Way To Go
EXTD=
EXTT0=
EXTT1=
EXTT2=
EXTT3=
EXTT4=
EXTT5=
EXTT6=
EXTT7=
EXTT8=
EXTT9=
PLAYORDER=
